<svg xmlns="http://www.w3.org/2000/svg" width="404" height="238"><path fill-rule="evenodd" fill="#915A68" d="M187.875 13.967c102.651 8.401 213.7-22.54 216.08-11.635 2.107 9.652-72.097 29.139-94.115 57.335-3.911 5.009-6.176 10.292-6.073 15.845.386 20.809 34.408 30.044 44.498 57.709 10.886 29.85-2.95 66.733-23.769 86.799-29.212 28.155-91.085 20.037-194.502-2.372-50.099-10.856-86.647-20.596-109.764-54.186C-9.913 119.665-5.766 51.676 28.581 20.669 47.602 3.498 71.736 1.394 101.869 3.971c24.534 2.097 53.044 7.298 86.006 9.996Z"/></svg>